PathFileType	4	(X/Y/Z)	RBDS001\RBDS001runT25.trc																																																																																																	
DataRate	CameraRate	NumFrames	NumMarkers	Units	OrigDataRate	OrigDataStartFrame	OrigNumFrames																																																																																													
150	150	9	33	mm	150	3937	4500																																																																																													
Frame#	Time	L.ASIS			L.Heel.Bottom			L.Heel.Lateral			L.Heel.Top			L.Iliac.Crest			L.MT1			L.MT5			L.PSIS			L.Shank.Bottom.Lateral			L.Shank.Bottom.Medial			L.Shank.Top.Lateral			L.Shank.Top.Medial			L.Thigh.Bottom.Lateral			L.Thigh.Bottom.Medial			L.Thigh.Top.Lateral			L.Thigh.Top.Medial			R.ASIS			R.ASY			R.Heel.Bottom			R.Heel.Lateral			R.Heel.Top			R.Iliac.Crest			R.MT5			R.MT1			R.PSIS			R.Shank.Bottom.Lateral			R.Shank.Bottom.Medial			R.Shank.Top.Lateral			R.Shank.Top.Medial			R.Thigh.Bottom.Lateral			R.Thigh.Bottom.Medial			R.Thigh.Top.Lateral			R.Thigh.Top.Medial		
		X1	Y1	Z1	X2	Y2	Z2	X3	Y3	Z3	X4	Y4	Z4	X5	Y5	Z5	X6	Y6	Z6	X7	Y7	Z7	X8	Y8	Z8	X9	Y9	Z9	X10	Y10	Z10	X11	Y11	Z11	X12	Y12	Z12	X13	Y13	Z13	X14	Y14	Z14	X15	Y15	Z15	X16	Y16	Z16	X17	Y17	Z17	X18	Y18	Z18	X19	Y19	Z19	X20	Y20	Z20	X21	Y21	Z21	X22	Y22	Z22	X23	Y23	Z23	X24	Y24	Z24	X25	Y25	Z25	X26	Y26	Z26	X27	Y27	Z27	X28	Y28	Z28	X29	Y29	Z29	X30	Y30	Z30	X31	Y31	Z31	X32	Y32	Z32	X33	Y33	Z33
																																																																																																				
3938	26.24666667	2340.791636	1046.827092	930.2728983	2088.284469	240.0550903	977.6552762	2115.672391	241.1793686	933.6806546	2123.968069	271.9719511	980.023337	2281.798186	1116.678515	892.3856587	2278.736768	118.7752679	978.1459852	2235.529726	144.1310694	881.0180272	2172.437284	1089.628472	993.1893645	2237.028351	317.2775423	912.7641127	2205.298452	340.710968	946.4714805	2279.591791	385.0611252	900.145674	2250.323087	411.7260224	936.3125797	2404.612782	675.0382659	873.7292708	2361.767536	649.6370075	927.6459031	2335.233883	760.0472545	862.5691714	2295.488392	738.366862	915.0056385	2336.403888	1033.047089	1139.077224	846869812.5	706380696.5	35576619778	1859.747507	114.6757056	1065.564792	1897.444203	114.5457382	1106.023236	1889.113001	154.0697606	1065.347448	2287.785665	1108.841272	1165.775312	2045.952487	49.32612623	1109.406017	2060.99127	49.23743474	1000.907569	2176.391589	1090.141838	1069.440756	2003.189182	218.279909	1113.634034	1964.757683	245.6391627	1085.52601	2038.739387	289.0567493	1132.756433	2000.514781	315.5519906	1103.894088	2203.747758	620.2757088	1160.649053	2143.48071	626.8212504	1117.891817	2199.69486	729.0809394	1178.24172	2143.28469	735.1763545	1137.176805
3939	26.25333333	2341.809293	1052.515015	929.6174348	2106.025414	225.0361178	978.5267281	2133.324929	226.9917293	934.5190159	2139.743639	258.9569929	980.3085886	2282.784126	1122.666454	892.023883	2303.418008	115.1212252	980.5009484	2258.782771	136.2772511	883.1478943	2174.148141	1095.443483	993.2042539	2250.615745	310.3121752	913.4154705	2217.711501	332.2165963	946.9836326	2289.491135	380.1889162	900.4023444	2258.856132	405.4645726	936.4134521	2404.322667	680.0553748	874.2030025	2361.643001	654.8261316	928.4330862	2335.048896	765.1741766	863.1768731	2295.532659	743.7549466	915.9377191	2338.389265	1037.136107	1138.220834	847694987.4	707070637.1	35611354794	1848.938522	125.2719074	1065.734296	1886.57172	123.1290546	1106.178004	1880.132173	163.1948051	1065.689223	2290.430286	1113.678692	1165.065878	2031.415066	50.56354252	1109.679596	2046.667329	49.9126292	1001.085792	2178.439803	1095.5975	1069.490889	1992.807904	224.7910023	1114.270532	1954.731677	251.8803305	1085.391761	2028.152435	295.7280282	1133.222154	1990.262564	321.9125465	1103.584016	2196.750083	626.5812873	1160.849341	2136.631834	634.6134585	1118.027883	2195.361204	735.3837772	1178.289571	2139.188649	742.9062533	1137.108883
3940	26.26	2342.765008	1057.990229	928.9009236	2124.458095	210.2698712	979.4195667	2151.608703	212.9487644	935.3513135	2156.155559	246.0371368	980.5320618	2283.674924	1128.45868	891.6846491	2328.023384	111.7535066	982.8470346	2282.193117	128.5998663	885.2907746	2175.862196	1101.041963	993.3264138	2264.392941	303.2807781	914.0050896	2230.44498	323.5406045	947.508019	2299.434149	375.0854557	900.6420205	2267.541324	398.853814	936.5725026	2403.456109	684.5297724	874.7492688	2360.76118	659.5096028	929.165545	2334.497815	769.9392903	863.8146157	2295.090951	748.79213	916.8100282	2340.478151	1041.154908	1137.346547	848520698.2	707761026.9	35646112412	1839.042478	136.4041342	1065.967048	1876.483204	132.1469786	1106.40868	1872.074806	172.6901081	1066.148277	2293.152738	1118.363703	1164.370158	2017.247267	52.05819553	1110.033136	2032.783429	50.98012536	1001.33783	2180.549763	1100.878765	1069.626273	1983.220047	231.3642257	1115.045082	1945.498967	258.1594051	1085.406367	2018.35517	302.4632032	1133.80018	1980.807624	328.3196643	1103.395883	2190.325384	632.9368107	1161.071525	2130.436925	642.406971	1118.107135	2191.489097	741.7022	1178.35701	2135.619319	750.5811577	1136.967474
3941	26.26666667	2343.665132	1063.176543	928.1592168	2143.50943	195.9085942	980.3453043	2170.458929	199.2139532	936.1888845	2173.170115	233.3506973	980.7268899	2284.48065	1133.963378	891.3710884	2352.437608	108.6532227	985.1347606	2305.647999	121.1863866	887.403963	2177.559186	1106.363889	993.5330279	2278.32579	296.2444448	914.5297272	2243.474658	314.7559439	948.0456977	2309.410967	369.7920761	900.8690003	2276.389471	391.9444626	936.8043921	2402.065106	688.4224973	875.338842	2359.158307	663.637586	929.7842021	2333.637152	774.2960191	864.4451218	2294.196851	753.4151296	917.5522257	2342.621178	1045.070682	1136.48882	849346945	708451865.9	35680892639	1830.08017	147.9828517	1066.249481	1867.173922	141.5369346	1106.708912	1864.928945	182.4740392	1066.724082	2295.91214	1122.865155	1163.70068	2003.436116	53.82758986	1110.460254	2019.354836	52.49293671	1001.679064	2182.685773	1105.937459	1069.828287	1974.414109	237.936788	1115.944093	1937.045279	264.4208696	1085.575315	2009.354117	309.1931807	1134.475437	1972.146798	334.7167924	1103.337617	2184.494581	639.2514703	1161.283101	2124.906107	650.0927712	1118.110238	2188.078351	747.9598715	1178.417818	2132.563446	758.1088969	1136.737752
3942	26.27333333	2344.526212	1068.006274	927.4271643	2163.079534	182.092667	981.3170055	2189.78422	185.9447777	937.0477673	2190.720199	221.032254	980.932183	2285.223545	1139.097307	891.0829439	2376.548461	105.8193633	987.3229085	2329.029155	114.1347204	889.451022	2179.224124	1111.360256	993.7960066	2292.364758	289.2686586	914.9949134	2256.75437	305.9449053	948.5991103	2319.398316	364.3565537	901.090924	2285.390863	384.7983976	937.1184477	2400.203893	691.7053868	875.940959	2356.888189	667.1771226	930.2432072	2332.521677	778.2036043	865.0347227	2292.89194	757.5732808	918.1072404	2344.771437	1048.852741	1135.67469	850173728.1	709143154.3	35715695483	1822.045996	159.902633	1066.564482	1858.617253	151.2258711	1107.069262	1858.656495	192.4566674	1067.409689	2298.666819	1127.160551	1163.066869	1989.963803	55.88099406	1110.95543	2006.388759	54.48201121	1002.127383	2184.814376	1110.734065	1070.074967	1966.359551	244.4546951	1116.948386	1929.339105	270.6217911	1085.894034	2001.140084	315.8560891	1135.22744	1964.263977	341.055711	1103.408344	2179.285095	645.4315128	1161.454815	2120.049842	657.5575015	1118.027729	2185.133817	754.074205	1178.449112	2130.008089	765.3926805	1136.418302
3943	26.28	2345.372008	1072.422961	926.7363586	2183.044401	168.9442156	982.3520027	2209.467093	173.284515	937.9503071	2208.704349	209.2058419	981.1926458	2285.935886	1143.79058	890.8176187	2400.247141	103.2759447	989.3772029	2352.212527	107.5506492	891.4027647	2180.846336	1115.992241	994.084146	2306.443163	282.4223098	915.4153576	2270.215152	297.1970445	949.1733914	2329.357534	358.8326313	901.318781	2294.512081	377.4874467	937.5183862	2397.925048	694.3618048	876.5256103	2354.019836	670.1138046	930.5154267	2331.198672	781.6278865	865.5553634	2291.223488	761.231249	918.4378394	2346.885953	1052.472226	1134.922359	851001047.4	709834892.2	35750520949	1814.905002	172.0432511	1066.89578	1850.765429	161.1307869	1107.480299	1853.191867	202.5412467	1068.193263	2301.374466	1131.23392	1162.474636	1976.812754	58.2205968	1111.514803	1993.885197	56.95319582	1002.700919	2186.904568	1115.236356	1070.342512	1959.008234	250.8735955	1118.034351	1922.333648	276.7327382	1086.348248	1993.689264	322.3976822	1136.031624	1957.13264	347.296695	1103.598325	2174.730589	651.3806277	1161.563434	2115.879659	664.6855636	1117.860812	2182.665843	759.9561214	1178.434613	2127.941955	772.3318589	1136.022427
3944	26.28666667	2346.229519	1076.383186	926.113385	2203.258812	156.5619043	983.47428	2229.365162	161.3542327	938.9259959	2226.987801	197.9784703	981.5573058	2286.656812	1147.990352	890.5713903	2423.427153	101.0751713	991.2686745	2375.067165	101.5418345	893.2379837	2182.418052	1120.229596	994.3653988	2320.47588	275.7758116	915.8140719	2283.76502	288.6061395	949.7770332	2339.233106	353.2788314	901.5663731	2303.694393	370.0913301	938.002707	2395.276287	696.3870826	877.0661511	2350.634078	672.4524068	930.5964398	2329.703567	784.5421268	865.9862442	2289.242172	764.3709112	918.5315095	2348.926715	1055.90188	1134.24127	851828903.4	710527079.9	35785369047	1808.592075	184.2725235	1067.233284	1843.552727	171.1602881	1107.936167	1848.442767	212.6268805	1069.0606	2303.992178	1135.073226	1161.926503	1963.971686	60.84399263	1112.136297	1981.837699	59.88768506	1003.414714	2188.927653	1119.417403	1070.606724	1952.297635	257.158845	1119.175573	1915.970128	282.7374162	1086.916065	1986.965763	328.7711199	1136.861264	1950.718936	353.4081963	1103.890373	2170.869151	657.0009035	1161.593542	2112.407968	671.3617783	1117.620677	2180.689319	765.5110936	1178.36701	2126.35559	778.8235736	1135.577636
3945	26.29333333	2347.124481	1079.857263	925.5786094	2223.558968	145.0176632	984.7155538	2249.312959	150.2459978	940.0109235	2245.40543	187.4349112	982.0768727	2287.428059	1151.662864	890.3405328	2445.981858	99.29492315	992.9723945	2397.453796	96.2082825	894.944084	2183.932812	1124.048647	994.6091678	2334.358935	269.3982725	916.2201252	2297.289757	280.266298	950.4216963	2348.952191	347.7565108	901.8492074	2312.854268	362.6948215	938.5656769	2392.298696	697.7887582	877.5418564	2346.819655	674.216195	930.5060507	2328.057919	786.9280327	866.3149931	2287.000061	766.9919561	918.4025867	2350.861312	1059.115816	1133.633496	852657296	711219717.4	35820239783	1803.013738	196.451004	1067.578382	1836.900918	181.2172626	1108.437879	1844.29347	222.6123735	1069.998066	2306.476555	1138.667561	1161.422222	1951.441891	63.74742865	1112.819058	1970.233883	63.24592255	1004.27669	2190.856931	1123.253316	1070.844394	1946.155744	263.2849083	1120.344758	1910.182261	288.6312	1087.571423	1980.925394	334.9363581	1137.689783	1944.985079	359.3661818	1104.262586	2167.740178	662.194535	1161.538287	2109.647138	677.4745059	1117.326475	2179.221523	770.6415498	1178.248971	2125.240668	784.7653627	1135.123124
3946	26.3	2348.076902	1082.828792	925.1454826	2243.764533	134.3559179	986.1142238	2269.124411	140.0182814	941.2454393	2263.766301	177.6346022	982.7995114	2288.288704	1154.793452	890.1221703	2467.801025	98.02953034	994.467234	2419.223606	91.6298673	896.5177375	2185.383938	1127.430256	994.7885433	2347.970403	263.353825	916.6652041	2310.655173	272.2673991	951.1212155	2358.425522	342.3272157	902.1829448	2321.886393	355.3842674	939.1988569	2389.027042	698.5866901	877.9400585	2342.669288	675.4447618	930.2866174	2326.270327	788.7770711	866.5383142	2284.549044	769.1109253	918.0909413	2352.663277	1062.089213	1133.096092	853486225.5	711912804.9	35855133165	1798.052795	208.4382945	1067.947972	1830.72634	191.2025644	1108.995597	1840.610734	232.4009999	1070.995394	2308.784119	1142.004443	1160.959789	1939.242724	66.92891146	1113.562286	1959.056121	66.97427359	1005.283623	2192.667451	1126.721073	1071.034689	1940.507211	269.2342564	1121.515779	1904.901554	294.4188334	1088.288222	1975.520321	340.8594161	1138.493143	1939.892756	365.1532353	1104.691931	2165.380357	666.8663404	1161.399153	2107.60805	682.9191256	1117.002299	2178.279094	775.2505022	1178.09257	2124.588811	790.0586208	1134.705288
